<svg width="203" height="132" viewBox="0 0 203 132" fill="none" xmlns="http://www.w3.org/2000/svg">
<path d="M174.376 23.7522C173.109 23.7522 172 22.6434 172 21.3761C172 20.1089 173.109 19 174.376 19C175.643 19 176.752 20.1089 176.752 21.3761C176.752 22.8018 175.643 23.7522 174.376 23.7522Z" fill="#EAA8FF"/>
<path d="M194.518 94.1645H197.008V91.518C197.008 91.051 197.475 90.584 197.942 90.584C198.409 90.584 198.876 91.051 198.876 91.518V94.1645H201.523C201.99 94.1645 202.457 94.6316 202.457 95.0986C202.457 95.5656 201.99 96.0327 201.523 96.0327H198.876V98.6792C198.876 99.1462 198.409 99.6132 197.942 99.6132C197.475 99.6132 197.008 99.1462 197.008 98.6792V96.0327H194.362C193.895 96.0327 193.428 95.5656 193.428 95.0986C193.583 94.6316 194.05 94.1645 194.518 94.1645Z" fill="#FFB5D7"/>
<path d="M77.0823 5.55839L78.3338 4.37897L77.0806 3.04927C76.8595 2.81462 76.873 2.35882 77.1077 2.13768C77.3423 1.91654 77.7981 1.93006 78.0192 2.16472L79.2724 3.49442L80.6021 2.24129C80.8367 2.02015 81.2925 2.03366 81.5137 2.26831C81.7348 2.50297 81.7213 2.95876 81.4866 3.1799L80.1569 4.43303L81.4101 5.76273C81.6312 5.99739 81.6177 6.45317 81.383 6.67431C81.1484 6.89545 80.6926 6.88194 80.4714 6.64729L79.2183 5.31759L77.8886 6.57071C77.654 6.79185 77.1982 6.77834 76.977 6.54369C76.8341 6.23532 76.8476 5.77953 77.0823 5.55839Z" fill="#B2ABFF"/>
<path d="M3.56474 108.128C1.66385 108.128 0.000566483 106.465 0.000566483 104.564C0.000566483 102.663 1.66385 101 3.56474 101C5.46563 101 7.12891 102.663 7.12891 104.564C7.12891 106.703 5.46563 108.128 3.56474 108.128Z" fill="#FFDE92"/>
<path opacity="0.1" fill-rule="evenodd" clip-rule="evenodd" d="M156 100.038C156.503 99.7403 156.961 99.3821 157.363 98.976C158.669 97.568 159.54 95.632 159.366 93.52C159.256 91.1911 157.902 89.2116 156 88.0659V100.038ZM156 72.048V57H170.162C174.516 57 178.086 60.432 177.998 64.656C177.998 66.68 177.128 68.528 175.822 69.848C174.516 71.256 172.6 72.048 170.598 72.048H156ZM18.4009 72.048H38.7871L44.8286 87.008H18.7491C14.5698 87.008 11 83.576 11 79.44C11 77.416 11.8707 75.568 13.1767 74.248C14.4828 72.928 16.3983 72.048 18.4009 72.048Z" fill="#B4D4FF"/>
<path opacity="0.3" d="M183 102C187.418 102 191 98.4183 191 94C191 89.5817 187.418 86 183 86C178.582 86 175 89.5817 175 94C175 98.4183 178.582 102 183 102Z" fill="#B4D4FF"/>
<path opacity="0.1" fill-rule="evenodd" clip-rule="evenodd" d="M59.5463 33.9968C59.5463 34.5448 60.0258 35.0243 60.5738 35.0243C61.1903 35.0243 61.6698 34.6133 61.7383 33.9283C61.7383 33.3803 61.1903 32.9008 60.6423 32.9008C60.0258 32.9008 59.5463 33.4488 59.5463 33.9968ZM59.5463 30.7087C59.6148 31.2567 60.0943 31.7363 60.6423 31.7363L60.7108 31.5308C60.9848 31.4622 61.2588 31.3252 61.4643 31.1197C61.6698 30.9142 61.7383 30.7087 61.7383 30.3662V28.3112C61.7312 28.2898 61.7263 28.2692 61.7234 28.2493C62.9727 27.4611 64.3606 27 65.8871 27H72.5172C72.5846 29.8402 71.6095 32.693 69.5921 34.8874C66.8744 37.8599 62.9457 39.0424 59.2749 38.4348C58.5804 37.2993 58.1784 35.9621 58.1784 34.5219C58.1784 32.8993 58.7018 31.4335 59.5463 30.2456V30.5717V30.7087ZM71.1676 37.97C74.3903 35.0337 75.9659 31.0117 75.8941 27H93.8364C93.6858 27.0196 93.5323 27.0297 93.3764 27.0297H86.3071C84.355 27.0297 82.7725 28.6122 82.7725 30.5643V45.6523L82.2518 52.3657C81.916 51.3887 80.9588 50.6863 79.8549 50.723C79.6239 50.7307 79.3808 50.7381 79.1266 50.7449C78.3817 49.0964 76.4844 48.2575 74.7392 48.8685L71.2235 50.0992C70.3214 50.415 69.3298 50.352 68.4749 49.9245L60.5875 45.9808C59.2619 45.3181 57.6609 46.0289 57.2635 47.4567L57.09 48.0804C56.9929 48.2436 56.9139 48.4213 56.8565 48.6128L54.7389 55.6715C54.5812 56.1968 54.2453 56.6508 53.7889 56.955L53.7215 57H29.5335C25.4164 57 22 53.6764 22 49.5656C22 47.4665 22.876 45.6297 24.19 44.2303C25.504 42.9184 27.4311 42.0437 29.4459 42.0437H42.0273C41.0969 43.0711 41.1268 44.5767 42.0549 45.5048C43.0139 46.4638 44.5895 46.4638 45.5485 45.5048L49.0809 42.0437H65.7119C64.8916 42.0437 64.0992 41.9118 63.3561 41.6673C66.1953 41.2487 68.9376 40.0163 71.1676 37.97ZM157 42.0437H180.554C182.569 42.0437 184.496 41.2566 185.81 39.8571C187.124 38.4577 188 36.621 188 34.5219C188 30.3236 184.671 27 180.554 27H144.758C144.908 27.0196 145.062 27.0297 145.218 27.0297H153.465C155.418 27.0297 157 28.6122 157 30.5643V42.0437Z" fill="#B4D4FF"/>
<path opacity="0.6" d="M61.8869 129.771L38.7798 72.5538C38.3344 71.451 38.7807 70.1892 39.8204 69.6115L46.9079 65.6741C47.8913 65.1277 48.3461 63.9584 47.9904 62.8911C47.657 61.891 48.0343 60.7915 48.9114 60.2067L53.7889 56.955C54.2453 56.6508 54.5812 56.1968 54.7389 55.6715L56.8565 48.6128C57.3778 46.875 59.6723 46.2739 61.1652 47.3049C63.2959 48.7764 66.3499 50.3673 69.8118 50.5932C73.7171 50.8481 77.4455 50.8033 79.8549 50.723C81.294 50.6751 82.4839 51.8835 82.3725 53.3191L77.1797 120.191C77.0845 121.416 77.9474 122.509 79.1617 122.701L85.1286 123.643L64.8865 131.1C63.6919 131.54 62.3637 130.952 61.8869 129.771Z" fill="#C0DDFF"/>
<path d="M52.9996 80.3168L77.9995 68.2041" stroke="white" stroke-width="4.36" stroke-linecap="round"/>
<path d="M57.0005 92.9605L77.0006 83.2044" stroke="white" stroke-width="4.36" stroke-linecap="round"/>
<path d="M62.0005 103.604L76.5005 96.7041" stroke="white" stroke-width="4.36" stroke-linecap="round"/>
<path d="M66.9995 116.247L75.4995 112.204" stroke="white" stroke-width="4.36" stroke-linecap="round"/>
<path opacity="0.6" d="M77.0362 119.606L83.7777 32.6851L82.827 115.342C82.7968 117.966 84.9155 120.109 87.5395 120.109H149.93L149.729 123.691C149.582 126.327 147.298 128.327 144.665 128.126L80.1155 123.199C78.2726 123.058 76.8933 121.449 77.0362 119.606Z" fill="#ABCDFF"/>
<path opacity="0.6" d="M93.3764 27.0297H86.3071C84.355 27.0297 82.7725 28.6122 82.7725 30.5643V116.574C82.7725 118.526 84.355 120.109 86.3071 120.109H153.465C155.418 120.109 157 118.526 157 116.574V30.5643C157 28.6122 155.418 27.0297 153.465 27.0297H145.218C143.266 27.0297 141.683 25.4471 141.683 23.495V21.1386C141.683 19.1864 140.101 17.6039 138.149 17.6039H133.519C132.703 17.6039 131.912 17.3216 131.281 16.805L121.645 8.92103C120.294 7.81594 118.339 7.86198 117.042 9.02941L108.523 16.6966C107.874 17.2807 107.032 17.6039 106.159 17.6039H100.446C98.4936 17.6039 96.911 19.1864 96.911 21.1386V23.495C96.911 25.4471 95.3285 27.0297 93.3764 27.0297Z" fill="#C0DDFF"/>
<path d="M112.229 55.3066H147.575" stroke="white" stroke-width="4.36" stroke-linecap="round"/>
<path d="M112.229 76.5146H140.506" stroke="white" stroke-width="4.36" stroke-linecap="round"/>
<path d="M112.229 98.7227H133.436" stroke="white" stroke-width="4.36" stroke-linecap="round"/>
<circle cx="100.445" cy="55.3066" r="4.71286" fill="white"/>
<path opacity="0.6" d="M96.9111 29.3861V28.2079V21.1386C96.9111 19.1865 98.4936 17.6039 100.446 17.6039H106.159C107.032 17.6039 107.874 17.2807 108.523 16.6966L117.042 9.02941C118.339 7.86198 120.294 7.81594 121.645 8.92103L131.281 16.805C131.913 17.3216 132.703 17.6039 133.519 17.6039H138.149C140.101 17.6039 141.683 19.1864 141.683 21.1386V28.2079V29.3861C141.683 31.3382 140.101 32.9207 138.149 32.9207H100.446C98.4936 32.9207 96.9111 31.3382 96.9111 29.3861Z" fill="#ABCDFF"/>
<path opacity="0.6" d="M49.3811 65.2799L48.1097 62.8771C48.0579 62.7793 48.0143 62.6773 47.9793 62.5723C47.6837 61.6854 48.0377 60.7117 48.8339 60.2217L53.5386 57.3265C54.2977 56.8594 54.8523 56.1226 55.0913 55.2639L57.264 47.4567C57.6613 46.0289 59.2624 45.3181 60.588 45.9808L68.4754 49.9245C69.3303 50.352 70.3219 50.415 71.224 50.0992L74.7397 48.8685C76.6018 48.2166 78.637 49.2152 79.2608 51.0868L79.3642 51.3969C79.9298 53.0938 79.1387 54.9458 77.5216 55.7102L54.016 66.8224C52.3071 67.6302 50.2651 66.9507 49.3811 65.2799Z" fill="#ABCDFF"/>
<circle cx="119.296" cy="25.8515" r="3.53465" fill="white"/>
<circle cx="62.7431" cy="55.3066" r="2.35643" fill="white"/>
<circle cx="100.445" cy="76.5146" r="4.71286" fill="white"/>
<circle cx="100.445" cy="97.7226" r="4.71286" fill="white"/>
<path opacity="0.5" fill-rule="evenodd" clip-rule="evenodd" d="M71.1676 37.97C77.3327 32.3529 77.4697 22.7628 71.5786 16.8717C65.8245 11.1176 56.6454 11.1861 50.8228 16.8032C45.7997 21.7658 45.2144 29.5087 48.9253 35.2137C48.8952 35.241 48.8656 35.2691 48.8365 35.2982L42.1234 41.9428C41.0959 42.9703 41.0959 44.5458 42.0549 45.5048C43.0139 46.4638 44.5895 46.4638 45.5485 45.5048L52.3086 38.8813C57.8162 43.0947 65.914 42.7909 71.1676 37.97ZM69.5921 34.8874C65.208 39.6825 57.6729 39.8195 53.1519 35.2984C48.6993 30.8459 48.6993 23.6533 53.1519 19.2007C57.6729 14.6796 65.208 14.8166 69.5921 19.6117C73.4966 23.9273 73.4966 30.6404 69.5921 34.8874Z" fill="#ADCEFF"/>
<path opacity="0.5" d="M60.5162 36C59.898 36 59.3571 35.4591 59.3571 34.8409C59.3571 34.2227 59.898 33.6045 60.5934 33.6045C61.2116 33.6045 61.8298 34.1455 61.8298 34.7636C61.7525 35.5364 61.2116 36 60.5162 36ZM60.5934 32.2909C59.9752 32.2909 59.4343 31.75 59.3571 31.1318C59.3571 31.0545 59.3571 31.0545 59.3571 30.9773V28.5818C59.3571 27.3455 60.1298 26.2636 61.2889 25.8C62.2162 25.4909 62.8343 24.5636 62.7571 23.6364C62.6798 22.5545 61.8298 21.6273 60.6707 21.55H60.5162C59.5889 21.55 58.7389 22.1682 58.4298 23.1727C58.2753 23.7136 57.8116 23.9455 57.2707 23.9455C57.1162 23.9455 56.9616 23.9455 56.8071 23.8682C56.2662 23.6364 55.8798 23.0955 56.0343 22.4C56.5752 20.4682 58.4298 19 60.5162 19H60.6707C61.8298 19 62.9889 19.3864 63.7616 20.2364C64.6889 21.2409 65.2298 22.4773 65.1525 23.8682C65.0753 25.6455 63.8389 27.3455 62.2162 27.9636H62.1389H62.0616C61.9071 28.0409 61.7525 28.1955 61.8298 28.4273V30.7455C61.8298 31.1318 61.769 31.4901 61.6418 31.7446C61.338 32.3521 60.8206 32.2909 60.5934 32.2909Z" fill="#ADCEFF"/>
</svg>
